<?xml version="1.0" standalone="no"?>
<!DOCTYPE svg PUBLIC "-//W3C//DTD SVG 20010904//EN"
 "http://www.w3.org/TR/2001/REC-SVG-20010904/DTD/svg10.dtd">
<svg version="1.0" xmlns="http://www.w3.org/2000/svg"
 width="294.000000pt" height="294.000000pt" viewBox="0 0 294.000000 294.000000"
 preserveAspectRatio="xMidYMid meet">
<metadata>
Created by potrace 1.11, written by Peter Selinger 2001-2013
</metadata>
<g transform="translate(0.000000,294.000000) scale(0.100000,-0.100000)"
fill="#000000" stroke="none">
<path d="M730 2790 c-36 -4 -112 -20 -170 -34 -86 -22 -109 -24 -127 -15 -13
7 -23 16 -23 21 0 4 -27 8 -61 8 -46 0 -68 -5 -90 -21 l-29 -20 0 -192 c-1
-148 -4 -198 -15 -217 -29 -51 -10 -136 35 -160 12 -6 47 -10 80 -9 70 3 85
15 140 124 39 75 84 148 113 179 9 11 17 23 17 28 0 4 11 10 25 14 14 3 25 10
25 15 0 4 9 13 20 19 20 11 20 8 20 -217 l-1 -228 -42 -20 c-78 -37 -88 -108
-20 -145 66 -35 63 -25 63 -236 0 -118 -4 -195 -10 -199 -5 -3 -10 -17 -10
-31 0 -20 -5 -24 -29 -24 -20 0 -40 -10 -60 -31 -28 -28 -31 -37 -31 -93 0
-74 18 -96 80 -96 40 0 40 0 40 -38 0 -21 5 -43 11 -49 12 -12 14 -70 4 -142
-9 -65 8 -95 55 -99 18 -1 36 -4 39 -6 4 -3 4 -36 1 -74 -3 -39 -2 -68 2 -66
11 7 29 -68 19 -80 -5 -6 -5 -20 0 -31 4 -11 8 -41 8 -67 1 -57 26 -88 70 -88
39 0 62 -10 54 -23 -3 -6 -1 -7 5 -3 7 4 20 2 29 -3 15 -8 15 -10 3 -11 -43
-1 -66 -83 -34 -128 8 -12 10 -22 5 -22 -17 0 -13 -77 5 -94 8 -9 11 -16 5
-16 -19 0 -12 -59 9 -80 26 -26 65 -25 91 1 21 21 22 50 4 93 -5 12 -5 17 2
13 6 -4 7 10 1 41 -5 26 -9 70 -9 97 1 52 -9 73 -44 93 -17 10 -18 11 -3 12
10 0 25 12 35 28 9 15 27 37 39 50 19 19 23 40 30 150 12 167 10 223 -9 249
-10 13 -4 17 43 27 60 13 65 24 65 153 0 86 3 117 12 116 25 -5 53 48 53 100
0 44 -4 53 -36 83 -26 25 -45 34 -70 34 l-34 0 0 230 0 230 40 20 c21 11 44
29 50 39 26 49 -5 113 -60 124 l-30 7 0 230 c0 127 3 230 8 228 46 -22 61 -32
57 -38 -2 -4 6 -12 18 -19 25 -13 63 -67 59 -82 -1 -6 2 -8 7 -5 11 7 36 -29
77 -114 17 -36 45 -80 62 -97 26 -29 36 -33 82 -33 78 0 114 24 125 84 5 24 2
49 -10 78 -9 23 -15 58 -14 77 1 20 -2 105 -6 190 -9 185 -13 191 -104 191
-44 0 -65 -5 -85 -21 -20 -16 -33 -19 -54 -13 -15 4 -31 8 -37 8 -5 1 -21 7
-35 15 -13 8 -54 18 -90 23 -95 13 -384 18 -460 8z"/>
<path d="M2375 2759 c-22 -4 -59 -8 -82 -8 -37 -1 -45 -6 -66 -36 -13 -19 -27
-32 -30 -28 -4 3 -7 -1 -7 -10 0 -8 -12 -25 -26 -36 -15 -12 -24 -21 -20 -21
4 0 -18 -31 -49 -69 -30 -37 -55 -72 -55 -76 0 -4 -10 -18 -22 -30 -26 -26
-28 -29 -109 -131 -33 -40 -59 -78 -59 -84 0 -5 -3 -10 -8 -10 -4 0 -31 -32
-61 -71 l-53 -71 -59 4 c-32 1 -59 0 -59 -4 0 -5 -6 -8 -13 -8 -8 0 -26 -13
-40 -30 -41 -45 -35 -94 14 -114 l28 -12 -24 -26 c-50 -54 -65 -97 -65 -189 0
-135 -13 -129 276 -130 132 0 249 0 262 0 18 1 22 -5 22 -28 0 -16 -7 -45 -15
-65 -13 -32 -20 -36 -53 -38 -94 -4 -119 -13 -137 -48 -25 -48 -19 -110 13
-147 l28 -33 201 0 c112 0 204 4 207 9 6 10 114 7 124 -3 11 -12 121 -5 156 9
36 15 51 33 19 21 -17 -6 -17 -5 -1 7 15 12 15 14 0 25 -9 7 -11 10 -4 7 6 -3
12 -2 12 2 0 5 -6 15 -12 22 -10 11 -10 13 0 7 6 -4 12 -2 12 3 0 6 -4 11 -8
11 -5 0 -9 7 -9 15 0 8 4 12 9 9 4 -3 5 9 1 27 -5 25 -3 30 7 24 8 -5 11 -4 6
3 -7 12 -36 5 -36 -8 0 -4 -22 -8 -50 -8 -37 -1 -50 3 -50 14 0 8 1 15 3 17 1
2 -6 11 -15 21 -10 10 -18 28 -18 41 0 13 -10 33 -22 45 -12 11 -18 20 -12 20
5 0 22 12 37 26 24 22 33 24 71 19 24 -4 54 -4 65 0 28 9 63 79 47 96 -8 9 -8
10 2 5 17 -10 15 9 -3 28 -8 8 -15 23 -15 33 0 34 -25 55 -71 62 -35 6 -48 3
-63 -11 -11 -10 -23 -18 -28 -18 -10 0 -11 45 -2 90 5 25 11 31 25 27 11 -3
17 -1 13 4 -3 5 0 9 5 9 20 0 51 40 51 66 0 28 -60 94 -86 94 -13 0 -15 18
-14 118 1 64 1 206 1 315 -1 195 -1 198 -25 222 -13 13 -21 26 -18 29 3 3 3 5
1 5 -2 -1 -22 -5 -44 -10z m-336 -680 c-24 -15 -29 -10 -11 11 10 12 18 16 21
9 2 -6 -3 -15 -10 -20z m-40 -154 c34 -10 51 -34 51 -71 l0 -34 -48 0 c-26 0
-54 6 -61 13 -8 6 -11 7 -8 1 4 -7 -13 -12 -53 -13 -36 -1 -60 3 -60 9 0 5 4
10 8 10 4 0 34 34 66 76 l59 76 13 -30 c7 -17 22 -33 33 -37z"/>
</g>
</svg>
